<!-- GitHub / LogNode theme -->
<svg width="28" height="28" viewBox="0 0 28 28" xmlns="http://www.w3.org/2000/svg" aria-label="GitHub">
    <defs>
        <linearGradient id="mint-gh" x1="0" y1="0" x2="1" y2="1">
            <stop offset="0%" stop-color="#19d27c"/>
            <stop offset="100%" stop-color="#0bbf68"/>
        </linearGradient>
    </defs>
    <rect x="1" y="1" width="26" height="26" rx="7" fill="rgba(25,210,124,0.08)" stroke="url(#mint-gh)" stroke-width="2"/>
    <g transform="translate(2,2)">
        <path d="M12 0C5.37 0 0 5.37 0 12c0 5.3 3.438 9.798 8.205 11.387.6.111.82-.261.82-.58 0-.287-.01-1.046-.016-2.053-3.338.726-4.042-1.61-4.042-1.61-.546-1.387-1.333-1.757-1.333-1.757-1.09-.745.083-.73.083-.73 1.205.084 1.84 1.237 1.84 1.237 1.07 1.834 2.807 1.304 3.492.997.108-.775.418-1.304.76-1.604-2.665-.304-5.466-1.332-5.466-5.93 0-1.31.468-2.381 1.235-3.221-.124-.303-.535-1.523.117-3.176 0 0 1.008-.322 3.3 1.23a11.5 11.5 0 0 1 3.003-.404c1.02.005 2.045.138 3.003.404 2.29-1.552 3.297-1.23 3.297-1.23.653 1.653.242 2.873.118 3.176.77.84 1.233 1.911 1.233 3.221 0 4.61-2.804 5.624-5.476 5.921.43.37.823 1.102.823 2.222 0 1.604-.015 2.896-.015 3.289 0 .321.216.697.825.578C20.565 21.794 24 17.297 24 12 24 5.37 18.627 0 12 0z"
              fill="#19d27c"/>
    </g>
</svg>
